<svg width="10" height="15" viewBox="0 0 10 15" fill="none" xmlns="http://www.w3.org/2000/svg">
<path d="M9.57433 2.69433C9.75978 2.69433 9.91014 2.53323 9.91014 2.33453V1.13519C9.91014 0.936492 9.75978 0.775391 9.57433 0.775391H1.29089C1.10544 0.775391 0.955078 0.936492 0.955078 1.13519V2.47689C0.955078 2.67559 1.10544 2.83669 1.29089 2.83669H3.67742C4.44162 2.83669 5.02798 3.13527 5.38364 3.6538H1.29089C1.10544 3.6538 0.955078 3.81491 0.955078 4.01361V5.21295C0.955078 5.41165 1.10544 5.57275 1.29089 5.57275H5.73364C5.55966 6.65473 4.81124 7.33074 3.6416 7.33074H1.29089C1.10544 7.33074 0.955078 7.49184 0.955078 7.69054V9.28003C0.955078 9.38044 0.994257 9.4763 1.06313 9.54442L5.68204 14.1126C5.74407 14.1739 5.82539 14.208 5.9098 14.208H8.22027C8.52597 14.208 8.67267 13.806 8.44803 13.5838L4.22566 9.40781C6.36646 9.33765 7.89567 7.80685 8.09644 5.57275H9.57433C9.75978 5.57275 9.91014 5.41165 9.91014 5.21295V4.01361C9.91014 3.81491 9.75978 3.6538 9.57433 3.6538H7.93191C7.83436 3.30777 7.7002 2.98679 7.53308 2.69433H9.57433Z" fill="white"/>
</svg>
