<svg width="29" height="29" viewBox="0 0 29 29" fill="none" xmlns="http://www.w3.org/2000/svg">
<path d="M28.6919 14.8262C28.6919 13.8717 28.6073 12.9654 28.4623 12.0833H14.8081V17.5329H22.626C22.2756 19.3213 21.2485 20.8317 19.726 21.8588V25.4838H24.3902C27.121 22.9583 28.6919 19.2367 28.6919 14.8262Z" fill="#4285F4"/>
<path d="M14.808 29C18.7229 29 21.9975 27.695 24.39 25.4838L19.7259 21.8588C18.4209 22.7288 16.7654 23.2604 14.808 23.2604C11.0259 23.2604 7.82378 20.7108 6.67587 17.2671H1.8667V21.0008C4.24712 25.7375 9.14087 29 14.808 29Z" fill="#34A853"/>
<path d="M6.67602 17.2671C6.37394 16.3971 6.21685 15.4667 6.21685 14.5C6.21685 13.5333 6.38602 12.6029 6.67602 11.7329V7.99917H1.86685C0.876021 9.95667 0.308105 12.1558 0.308105 14.5C0.308105 16.8442 0.876021 19.0433 1.86685 21.0008L6.67602 17.2671Z" fill="#FBBC05"/>
<path d="M14.808 5.73958C16.9467 5.73958 18.8559 6.47667 20.3663 7.91459L24.4988 3.78208C21.9975 1.43792 18.7229 0 14.808 0C9.14087 0 4.24712 3.2625 1.8667 7.99917L6.67587 11.7329C7.82378 8.28917 11.0259 5.73958 14.808 5.73958Z" fill="#EA4335"/>
</svg>
