<svg width="19" height="20" viewBox="0 0 19 20" fill="none" xmlns="http://www.w3.org/2000/svg">
<path d="M13.2531 1.93237e-07C13.8066 1.69138e-05 14.3406 0.204007 14.7531 0.572972C15.1656 0.941936 15.4276 1.44999 15.4891 2H16.7571C17.1961 2.00027 17.619 2.16553 17.9419 2.46302C18.2647 2.7605 18.464 3.16847 18.5001 3.606L18.5061 3.75V6.75C18.5062 7.58014 18.1886 8.37883 17.6184 8.98223C17.0483 9.58563 16.2689 9.948 15.4401 9.995L15.2301 10.001C14.8968 11.04 14.2752 11.9629 13.4376 12.6623C12.6 13.3616 11.5809 13.8085 10.4991 13.951V15.5H12.2521C13.0821 15.5002 13.8805 15.8179 14.4837 16.388C15.0869 16.9581 15.4491 17.7374 15.4961 18.566L15.5021 18.75V19.25C15.5021 19.4314 15.4363 19.6066 15.317 19.7432C15.1976 19.8798 15.0329 19.9686 14.8531 19.993L14.7521 20H4.75012C4.56871 20.0002 4.39336 19.9347 4.25656 19.8156C4.11977 19.6964 4.03079 19.5317 4.00612 19.352L4.00012 19.25V18.75C4.00005 17.92 4.31752 17.1215 4.88743 16.5181C5.45733 15.9147 6.23649 15.5522 7.06512 15.505L7.25012 15.5H9.00012V13.951C7.91866 13.8082 6.90002 13.3611 6.06281 12.6618C5.2256 11.9625 4.60425 11.0397 4.27112 10.001L4.24512 10C3.38316 10 2.55651 9.65759 1.94702 9.0481C1.33753 8.4386 0.995117 7.61195 0.995117 6.75V3.75C0.995117 2.784 1.77912 2 2.74512 2H4.01312C4.07463 1.44982 4.33682 0.941626 4.74953 0.572638C5.16225 0.203651 5.69651 -0.000229125 6.25012 1.93237e-07H13.2531ZM12.2531 17H7.25012C6.85503 16.9998 6.47151 17.1333 6.16194 17.3788C5.85237 17.6243 5.63497 17.9673 5.54512 18.352L5.51712 18.5H13.9851C13.9287 18.1096 13.742 17.7497 13.4554 17.4787C13.1688 17.2077 12.7991 17.0415 12.4061 17.007L12.2531 17ZM13.2531 1.5H6.25012C6.05121 1.5 5.86044 1.57902 5.71979 1.71967C5.57913 1.86032 5.50012 2.05109 5.50012 2.25V8.248C5.51724 9.36428 5.97269 10.429 6.76814 11.2124C7.56359 11.9957 8.63521 12.4348 9.75162 12.4348C10.868 12.4348 11.9396 11.9957 12.7351 11.2124C13.5305 10.429 13.986 9.36428 14.0031 8.248V2.25C14.0031 2.05109 13.9241 1.86032 13.7834 1.71967C13.6428 1.57902 13.452 1.5 13.2531 1.5ZM16.7571 3.5H15.5031V8.483C15.8942 8.42741 16.255 8.24112 16.5268 7.95443C16.7986 7.66775 16.9654 7.29753 17.0001 6.904L17.0071 6.75V3.75C17.007 3.69368 16.9879 3.63904 16.9529 3.59493C16.9179 3.55083 16.869 3.51984 16.8141 3.507L16.7571 3.5ZM4.00012 3.5H2.74512C2.67881 3.5 2.61522 3.52634 2.56834 3.57322C2.52146 3.62011 2.49512 3.6837 2.49512 3.75V6.75C2.49506 7.17172 2.6473 7.57929 2.92382 7.8977C3.20034 8.21611 3.58255 8.42396 4.00012 8.483V3.5Z" fill="black"/>
</svg>
