<svg width="24" height="24" viewBox="0 0 24 24" fill="none" xmlns="http://www.w3.org/2000/svg">
<path d="M17.9197 21.784C17.629 21.4561 17.284 21.1809 16.9108 21.1083C16.9108 21.106 16.9112 21.1037 16.9112 21.1013C16.9112 20.5226 16.4421 20.0535 15.8634 20.0535H8.16261C7.58394 20.0535 7.11481 20.5225 7.11481 21.1013C7.11481 21.1036 7.11514 21.1059 7.11519 21.1083C6.74197 21.1809 6.39697 21.4561 6.1063 21.784C5.62648 22.3254 6.01203 23.1799 6.7354 23.1799H17.2906C18.014 23.1799 18.3995 22.3254 17.9197 21.784Z" fill="#E2A042"/>
<path d="M23.137 4.03381C22.5786 3.36668 21.7595 2.98404 20.8895 2.98404H19.7582V1.62134H4.26791V2.98404H3.11067C2.24071 2.98404 1.42157 3.36663 0.863243 4.03381C0.304915 4.70093 0.0725557 5.57468 0.225884 6.43104L1.13156 11.4905C1.38196 12.8894 2.59518 13.9047 4.01634 13.9047H7.62834C7.73118 13.9047 7.83323 13.899 7.93434 13.8884C8.39695 14.4143 8.8911 14.9316 9.40968 15.4503C9.78665 15.8272 10.125 16.138 10.4384 16.383C10.3513 16.8134 10.2533 17.2414 10.1445 17.6668L10.0085 18.1828C9.95957 18.353 9.91734 18.5206 9.86573 18.6827C9.81177 18.8448 9.73813 19.0015 9.65629 19.1501C9.57374 19.2987 9.48712 19.4391 9.41643 19.5688C9.35119 19.6834 9.29252 19.8016 9.2407 19.9228C9.22007 19.9755 9.19823 20.0248 9.18388 20.0704C9.17006 20.116 9.16035 20.1579 9.15684 20.1957C9.13931 20.347 9.19753 20.4334 9.19753 20.4334C9.4889 20.8668 9.95981 21.237 10.5798 21.4733C12.1272 22.0632 14.0173 21.5976 14.8013 20.4334C14.8013 20.4334 14.8596 20.347 14.842 20.1957C14.8385 20.1579 14.8288 20.116 14.815 20.0704C14.8007 20.0248 14.7788 19.9755 14.7582 19.9228C14.7063 19.8016 14.6477 19.6834 14.5824 19.5688C14.5117 19.4391 14.4251 19.2987 14.3426 19.1501C14.2607 19.0015 14.187 18.8448 14.1331 18.6827C14.0815 18.5206 14.0393 18.353 13.9904 18.1828L13.8543 17.6668C13.7471 17.2474 13.6503 16.8255 13.5641 16.4013C13.8841 16.1535 14.23 15.8367 14.6165 15.4503C15.1344 14.9323 15.628 14.4156 16.0901 13.8904C16.1837 13.8997 16.2777 13.9045 16.3718 13.9047H19.9838C21.4049 13.9047 22.6182 12.8894 22.8687 11.4904L23.7742 6.43104C23.9276 5.57473 23.6953 4.70093 23.137 4.03381ZM4.01634 11.9079C3.79715 11.9081 3.58491 11.8311 3.41682 11.6904C3.24874 11.5498 3.13555 11.3544 3.09712 11.1386L2.1914 6.0792C2.12456 5.7056 2.28993 5.44024 2.39451 5.31532C2.49909 5.1904 2.73112 4.98082 3.11067 4.98082H4.26909C4.29904 7.80045 5.10721 9.97596 6.39604 11.9079H4.01634ZM21.8087 6.0792L20.9031 11.1386C20.8647 11.3544 20.7515 11.5498 20.5834 11.6904C20.4153 11.8311 20.2031 11.9081 19.9839 11.908H17.6301C18.919 9.97601 19.7272 7.80049 19.7571 4.98087H20.8896C21.2691 4.98087 21.5011 5.19045 21.6057 5.31537C21.7102 5.44024 21.8756 5.7056 21.8087 6.0792Z" fill="#FFB636"/>
<path d="M6.25244 23.0289C6.88399 23.6604 9.33738 23.9061 12.013 23.9061C14.6886 23.9061 17.4211 23.3971 17.8506 22.9676C18.28 22.5381 15.457 22.5266 15.457 22.5266L6.25244 23.0289Z" fill="#E2A042"/>
<path d="M12 2.94053C16.2734 2.94053 19.7376 2.3499 19.7376 1.62133C19.7376 0.892751 16.2734 0.302124 12 0.302124C7.72668 0.302124 4.26245 0.892751 4.26245 1.62133C4.26245 2.3499 7.72668 2.94053 12 2.94053Z" fill="#FFD469"/>
<path d="M17.18 8.97416C17.0879 8.97416 16.9943 8.95761 16.9031 8.92264C16.5043 8.76969 16.305 8.32236 16.458 7.92355C17.0307 6.43034 16.9769 5.56634 16.9199 4.65167C16.8933 4.22534 17.2174 3.85817 17.6437 3.83159C18.0709 3.80515 18.4372 4.12915 18.4638 4.55543C18.5384 5.75356 18.5445 6.80309 17.9022 8.47747C17.7842 8.7852 17.491 8.97416 17.18 8.97416Z" fill="#FFD469"/>
</svg>
